<?xml version="1.0" encoding="UTF-8"?><!DOCTYPE svg PUBLIC "-//W3C//DTD SVG 1.1//EN" "http://www.w3.org/Graphics/SVG/1.1/DTD/svg11.dtd"><svg xmlns="http://www.w3.org/2000/svg" xmlns:xlink="http://www.w3.org/1999/xlink"><defs>
<clipPath id="clip0">
<rect width="20" height="20" fill="white"/>
</clipPath>
</defs><symbol id="icon-cat-pro" viewBox="0 0 134 56">
  <g>
    <path d="M123.1,5.8c1.2-1.9,2.7-3.4,4.5-4.6c1-0.7,1.6-0.7,2.2,0.6c0.8,1.9,1.5,3.9,0.9,6c-0.2,0.8-0.1,1.4,0.4,2.1
    c0.6,0.8,1.1,1.6,1.6,2.3c1.3,1.9,1.8,3.9,0.9,6.2c-0.4,1-0.4,2-0.2,3.1c0.2,1,0.2,2,0,3c-0.3,1.6-1.1,2.7-2.7,3.2
    c-1.3,0.3-2.4,0.9-3.2,2c-0.2,0.3-0.5,0.5-0.9,0.5c-1.2,0.2-4.2-2.5-4.2-3.7c0-0.2,0-0.4,0-0.6c0.1-3.6-0.1-3.9-3.4-5.4
    c-0.7-0.3-1.3-0.6-1.8-1.2c-0.6-0.8-1.4-0.7-2.3-0.4c-0.8,0.4-1.4,0.9-1.3,1.9c0.3,2.4,0.4,4.8,0.3,7.3c0,0.3,0.1,0.6,0.2,0.8
    c3.1,4.5,4.3,9.8,5.8,14.9c1.2,3.9,3.4,6,7.4,6.3c0.6,0,1.3,0.2,1.9,0.3c1.8,0.3,2.9,1.5,3.4,3.2c0.7,2.1,0.3,2.6-1.8,2.6
    c-2.2,0-4.3,0-6.5,0c-0.9,0-1.6-0.2-2.3-0.8c-1-1-2.2-1.4-3.4-2c-1.3-0.6-2.6-1.3-3.4-2.6c-1.1-1.7-2.6-3.1-4-4.5
    c-2.8-2.9-5.8-5.7-8.4-8.7c-1.9-2.2-3.2-4.6-3.2-7.6c0-0.9-0.2-1.3-1.2-0.9c-0.3,0.2-0.7,0.3-1,0.3c-2.8,0-4.2,1.7-5.2,4.2
    c-0.9,2.1-2.1,4.1-3.2,6.2C88.5,40.9,88,42.4,88,44c0,2.4,0.6,3.2,2.8,4c1.4,0.5,2.7,1,3.4,2.4c0.8,1.6,0.6,2-1.1,2.1
    c-2.3,0-4.5,0-6.8,0c-0.9,0-1.5-0.3-1.9-1.1c-0.6-1-1.2-2-1.8-3c-1-1.7-1.4-3.4-0.7-5.4c0.6-1.7,0.3-3.6,0.1-5.3
    c-0.4-2.6,0-4.9,1.7-7c0.6-0.7,0.6-1-0.4-1.2c-4.1-0.8-8-2.3-11.8-4.1c0,0-0.1,0-0.1-0.1c-3.2-1.2-3.8-1-4.7,2.3
    c-0.8,2.8-1.6,5.6-2.2,8.5c-0.7,3.2,0.1,6.2,1.1,9.2c0.4,1.2,1.6,1.1,2.5,1.4c2,0.6,3.7,1.4,4.5,3.5c0.7,1.6,0.6,1.8-1.1,1.8
    c-1.7,0-3.4-0.1-5.2,0c-1.6,0.1-2.8-0.5-4.2-1.4c-4.8-3.2-6.2-8.1-6.6-13.4c-0.2-3.3-2-5.9-4.1-8.4c-0.4-0.5-0.8-0.7-1.4-0.3
    c-2.1,1.3-4.5,2.1-6.7,3c-4.8,1.8-9,4.6-12.2,8.8c-1.2,1.5-1.9,3.2-2.2,5.1c-0.3,1.8,0.2,2.6,2,3.1c1.9,0.6,2.7,1.5,2.9,3.4
    c0.1,0.8-0.2,1.2-1,1.2c-2.7,0-5.4,0-8.1,0c-0.6,0-1-0.4-1.3-0.8c-1.3-1.6-1.9-3.5-1.9-5.5c-0.1-3.5,0.3-6.9,0.9-10.3
    c0.4-2.1,1.4-3.8,3.4-4.8c5.9-2.8,9-8.1,11.8-13.6c0.6-1.1,0.1-1.3-0.9-1.2c-2.9,0.3-5.4,1.6-7.7,3.2c-3,2.1-5.7,4.6-8.3,7.1
    c-2.9,2.7-6.2,4.6-10.3,4.9C3.1,32.5-0.3,28.4,0,21.8c0.1-2.3,0.9-4.4,2.4-6.1c1.2-1.3,2.6-2,4.5-1.5c1.5,0.4,1.9,1.2,1.3,2.7
    c-0.3,0.6-0.7,1.1-1,1.7c-0.4,0.6-0.8,1.3-1,2c-1.1,3,0.4,5.1,3.5,5.4c3.3,0.3,6-1.1,8.5-3.1c3-2.4,5.7-5.2,8-8.3
    c3.7-4.8,8.5-7.3,14.4-8.1c2.3-0.3,4.3-1.3,6.5-1.9c4.1-1.2,8.3-1.9,12.7-1.8c2,0.1,3.9-0.3,5.8-1.1c4.9-2,10-2,15.1-1
    c4,0.8,8,1.8,11.9,2.8c2.2,0.5,4.7,0.3,7-0.2c4.4-1,8.9-1.9,13.4-2c3-0.1,5.9,0.4,8.6,1.7C123.6,3.9,123.6,3.9,123.1,5.8z"/>
  </g>
</symbol><symbol id="icon-cat-slim" viewBox="0 0 70 97">
  <g>
    <path d="M54.8,0c-0.1,0-0.3,0-0.4,0c-0.7,0.4-1.1,0.9-1.4,1.6c-0.6,1.1-1,2.3-1.3,3.4c-0.2,0.8-0.7,1.2-1.5,1.3
    c-2.3,0.4-4,1.7-5.2,3.7c-0.7,1.3-1.3,2.6-1.8,3.9c-1.4,3.7-2.5,7.5-3.8,11.2C38.7,27,38.6,27,36.7,27c-2.3,0-2.1-0.4-2.1,2.1
    c0,0.8,0.2,1.2,1.1,1.2c0.3,0,0.7-0.1,0.8,0.2c0.1,0.3-0.2,0.5-0.4,0.7c-1.2,1.3-2.7,2-4.3,2.4c-1.9,0.5-3.8,0.9-5.7,1.5
    c-4.7,1.6-9.1,3.8-12.6,7.6c-2.1,2.3-3.5,5-4.7,7.8C5,59.2,3.2,68.3,1.8,77.5c-0.6,4.3-1.1,8.6-1.5,13C0.2,92.7,0,94.8,0,97
    c11.1,0,22.2,0,33.3,0c0.1-0.5-0.1-0.9-0.2-1.3c-0.7-1.8-2.1-2.7-3.8-3.1c-0.7-0.2-0.8-0.4-0.4-0.9c0.7-0.9,1.2-2,1.6-3.1
    c1.6-4.8,2.3-9.8,3.1-14.8C34.2,70,35.1,66.4,37,63c1.5-2.5,3.3-4.6,5.6-6.4c0.8-0.6,0.9-0.6,1,0.4c0.1,0.7,0.1,1.4,0.2,2.2
    c0.3,4.7,0.3,9.5-0.2,14.2c-0.3,3.7-0.5,7.4-0.2,11c0.4,4.3,1.2,8.4,2.2,12.6c4.4,0,8.9,0,13.3,0c-0.3-2.2-2.1-4-4.2-4.4
    c-1.3-0.2-2.5-0.1-3.8,0.2c-0.6,0.1-0.8,0-0.9-0.6c-0.4-5.3-0.1-10.6,1-15.8c1.3-6,2.4-12.1,3.1-18.2c0.3-2.5,1-4.8,2.3-7
    c1.2-2.1,2.2-4.3,3.4-6.5c0.9-1.7,1.1-3.4,0.4-5.2c-0.3-0.7-0.5-1.4-0.9-2.1c-1-2-2-3.9-2.9-5.9c-0.5-1-0.4-1.1,0.7-1.1
    c1.6,0,1.6,0,1.7-1.6c0-0.2,0-0.4,0-0.7c0-0.7-0.3-1.1-1-1c-0.5,0-1,0-1.5,0c-0.7,0-0.9-0.3-0.7-1c0.6-2.3,2.8-4.1,5.1-4.4
    c2.2-0.3,4.4,0,6.6,0.4c0.6,0.1,1,0,1.3-0.6c0.4-1,0.8-2,1.3-3c0.2-0.4,0.2-0.8-0.1-1.1C66.6,13.2,63.1,9.4,58.4,7
    c-0.5-0.3-0.8-0.6-0.9-1.1c-0.3-1.4-0.7-2.8-1.3-4.2C55.9,1,55.6,0.4,54.8,0z"/>
  </g>
</symbol><symbol id="icon-close" viewBox="0 0 18 18">
  <polygon points="18,1.3 16.7,0 9,7.7 1.3,0 0,1.3 7.7,9 0,16.7 1.3,18 9,10.3 16.7,18 18,16.7 10.3,9 "/>
</symbol><symbol id="icon-fb" viewBox="0 0 13 20">
<path d="M11.5 0.833252H8.75001C7.53443 0.833252 6.36864 1.30674 5.5091 2.14957C4.64956 2.99239 4.16667 4.1355 4.16667 5.32743V8.02394H1.41667V11.6193H4.16667V18.81H7.83334V11.6193H10.5833L11.5 8.02394H7.83334V5.32743C7.83334 5.08905 7.92992 4.86042 8.10182 4.69186C8.27373 4.52329 8.50689 4.4286 8.75001 4.4286H11.5V0.833252Z" stroke="currentColor" fill="none" stroke-width="1.1" stroke-linecap="round" stroke-linejoin="round"/>
</symbol><symbol id="icon-gift" viewBox="0 0 78 80">
<path d="M64.0156 34.7129H14.031C12.2766 34.7129 10.8494 33.2954 10.8494 31.5526V22.0845C10.8494 20.3417 12.2766 18.9236 14.031 18.9236H64.0149C65.7687 18.9236 67.1953 20.3417 67.1953 22.0845V31.5533C67.1959 33.2954 65.7693 34.7129 64.0156 34.7129ZM14.031 21.3457C13.6276 21.3457 13.2869 21.6842 13.2869 22.0845V31.5533C13.2869 31.9602 13.6208 32.2914 14.031 32.2914H64.0149C64.4244 32.2914 64.7578 31.9602 64.7578 31.5533V22.0845C64.7578 21.6836 64.4171 21.3457 64.0149 21.3457H14.031Z" fill="white"/>
<path d="M57.0447 67.1491H20.999C17.6218 67.1491 14.8741 64.4193 14.8741 61.0628V33.5018C14.8741 32.8333 15.4201 32.2908 16.0929 32.2908C16.7656 32.2908 17.3116 32.8333 17.3116 33.5018V61.0628C17.3116 63.0835 18.9661 64.7269 20.999 64.7269H57.0447C59.077 64.7269 60.7308 63.0835 60.7308 61.0628V33.5018C60.7308 32.8333 61.2768 32.2908 61.9496 32.2908C62.6223 32.2908 63.1683 32.8333 63.1683 33.5018V61.0628C63.1683 64.4193 60.4213 67.1491 57.0447 67.1491Z" fill="white"/>
<path d="M39.0225 67.1491C38.3498 67.1491 37.8038 66.6071 37.8038 65.938V33.5018C37.8038 32.8333 38.3498 32.2908 39.0225 32.2908C39.6953 32.2908 40.2413 32.8333 40.2413 33.5018V65.9374C40.2413 66.6071 39.6959 67.1491 39.0225 67.1491Z" fill="white"/>
<path d="M23.8113 21.3416C19.9966 19.2876 18.5731 14.533 20.6383 10.7417C22.7022 6.95225 27.4864 5.53711 31.303 7.58746C37.117 10.7169 40.2565 19.4475 40.3869 19.8175L38.0877 20.621C38.0585 20.5387 35.1256 12.3997 30.1433 9.71773C27.5078 8.30199 24.2062 9.27933 22.7821 11.8946C21.3567 14.5124 22.339 17.7944 24.9734 19.2119L23.8113 21.3416Z" fill="white"/>
<path d="M54.2313 21.3416L53.071 19.2113C54.3477 18.524 55.2782 17.385 55.6926 16.0038C56.1063 14.622 55.9534 13.1626 55.2617 11.8952C54.5719 10.6266 53.4263 9.70258 52.0363 9.29142C50.6457 8.88026 49.1783 9.03164 47.9023 9.71771C42.9201 12.399 39.9871 20.538 39.9579 20.6204L37.6587 19.8168C37.7891 19.4469 40.928 10.7162 46.7421 7.58744C48.5897 6.59315 50.7182 6.37394 52.7316 6.96979C54.7468 7.56503 56.4061 8.90508 57.4061 10.7417C58.4073 12.5777 58.6285 14.6916 58.0289 16.6941C57.4287 18.696 56.0801 20.3461 54.2313 21.3416Z" fill="white"/>
<path d="M61.9496 50.9317H16.0929C15.4201 50.9317 14.8741 50.3891 14.8741 49.7206C14.8741 49.0521 15.4201 48.5095 16.0929 48.5095H61.9496C62.6223 48.5095 63.1683 49.0521 63.1683 49.7206C63.1683 50.3891 62.6229 50.9317 61.9496 50.9317Z" fill="white"/>
</symbol><symbol id="icon-insta" viewBox="0 0 16 16">
<path d="M7.98438 0.0625C9.31771 0.0625 10.4062 0.078125 11.25 0.109375C11.9688 0.140625 12.6094 0.265625 13.1719 0.484375C13.7135 0.692708 14.1823 0.994792 14.5781 1.39062C14.974 1.78646 15.276 2.25521 15.4844 2.79687C15.7031 3.35937 15.8281 4 15.8594 4.71875C15.8906 5.5625 15.9062 6.65104 15.9062 7.98437C15.9062 9.31771 15.8906 10.4062 15.8594 11.25C15.8281 11.9687 15.7031 12.6094 15.4844 13.1719C15.276 13.7135 14.974 14.1823 14.5781 14.5781C14.1823 14.974 13.7135 15.276 13.1719 15.4844C12.6094 15.7031 11.9688 15.8281 11.25 15.8594C10.4062 15.8906 9.31771 15.9062 7.98438 15.9062C6.65104 15.9062 5.5625 15.8906 4.71875 15.8594C4 15.8281 3.35938 15.7031 2.79688 15.4844C2.25521 15.276 1.78646 14.974 1.39062 14.5781C0.994792 14.1823 0.692708 13.7135 0.484375 13.1719C0.265625 12.6094 0.140625 11.9687 0.109375 11.25C0.078125 10.4062 0.0625 9.31771 0.0625 7.98437C0.0625 6.65104 0.078125 5.5625 0.109375 4.71875C0.140625 4 0.265625 3.35937 0.484375 2.79687C0.692708 2.25521 0.994792 1.78646 1.39062 1.39062C1.78646 0.994792 2.25521 0.692708 2.79688 0.484375C3.35938 0.265625 4 0.140625 4.71875 0.109375C5.5625 0.078125 6.65104 0.0625 7.98438 0.0625ZM7.98438 1.09375C6.59896 1.09375 5.46875 1.10937 4.59375 1.14062C4.03125 1.16146 3.51042 1.26042 3.03125 1.4375C2.28125 1.75 1.75 2.28125 1.4375 3.03125C1.26042 3.51042 1.16146 4.03125 1.14062 4.59375C1.10938 5.46875 1.09375 6.59896 1.09375 7.98437C1.09375 9.36979 1.10938 10.5 1.14062 11.375C1.16146 11.9375 1.26042 12.4583 1.4375 12.9375C1.75 13.6875 2.28125 14.2187 3.03125 14.5312C3.51042 14.7083 4.03125 14.8073 4.59375 14.8281C5.46875 14.8594 6.59896 14.875 7.98438 14.875C9.36979 14.875 10.5 14.8594 11.375 14.8281C11.9375 14.8073 12.4583 14.7083 12.9375 14.5312C13.6875 14.2187 14.2188 13.6875 14.5312 12.9375C14.7083 12.4583 14.8073 11.9375 14.8281 11.375C14.8594 10.5 14.875 9.36979 14.875 7.98437C14.875 6.59896 14.8594 5.46875 14.8281 4.59375C14.8073 4.03125 14.7083 3.51042 14.5312 3.03125C14.2188 2.28125 13.6875 1.75 12.9375 1.4375C12.4583 1.26042 11.9375 1.16146 11.375 1.14062C10.5 1.10937 9.36979 1.09375 7.98438 1.09375ZM7.98438 11.1562C8.85938 11.1562 9.60677 10.8464 10.2266 10.2266C10.8464 9.60677 11.1562 8.85937 11.1562 7.98437C11.1562 7.10937 10.8464 6.36198 10.2266 5.74219C9.60677 5.1224 8.85938 4.8125 7.98438 4.8125C7.10938 4.8125 6.36198 5.1224 5.74219 5.74219C5.1224 6.36198 4.8125 7.10937 4.8125 7.98437C4.8125 8.85937 5.1224 9.60677 5.74219 10.2266C6.36198 10.8464 7.10938 11.1562 7.98438 11.1562ZM7.98438 3.92187C9.10938 3.92187 10.0677 4.31771 10.8594 5.10937C11.651 5.90104 12.0469 6.85937 12.0469 7.98437C12.0469 9.10937 11.651 10.0677 10.8594 10.8594C10.0677 11.651 9.10938 12.0469 7.98438 12.0469C6.85938 12.0469 5.90104 11.651 5.10938 10.8594C4.31771 10.0677 3.92188 9.10937 3.92188 7.98437C3.92188 6.85937 4.31771 5.90104 5.10938 5.10937C5.90104 4.31771 6.85938 3.92187 7.98438 3.92187ZM13.1719 3.76562C13.1719 4.02604 13.0781 4.2474 12.8906 4.42969C12.7031 4.61198 12.474 4.70312 12.2031 4.70312C11.9427 4.70312 11.7214 4.61198 11.5391 4.42969C11.3568 4.2474 11.2656 4.02604 11.2656 3.76562C11.2656 3.49479 11.3568 3.26562 11.5391 3.07812C11.7214 2.89062 11.9427 2.79687 12.2031 2.79687C12.4635 2.79687 12.6901 2.89323 12.8828 3.08594C13.0755 3.27865 13.1719 3.50521 13.1719 3.76562Z" fill="currentColor"/>
</symbol><symbol id="icon-mail-green" viewBox="0 0 17 13">
  <path d="M15.6,11.6H1.4V5.8H0V13h17V5.8h-1.4V11.6z M0,0v2.3l8.5,7.1L17,2.3V0H0z M15.6,1.6L8.5,7.5L1.4,1.6V1.4h14.2L15.6,1.6z"/>
</symbol><symbol id="icon-mail" viewBox="0 0 17 13">
  <path d="M15.6,11.6H1.4V5.8H0V13h17V5.8h-1.4V11.6z M0,0v2.3l8.5,7.1L17,2.3V0H0z M15.6,1.6L8.5,7.5L1.4,1.6V1.4h14.2L15.6,1.6z"/>
</symbol><symbol id="icon-mobile-menu" viewBox="0 0 24 18">
  <rect y="16" width="24" height="2"/>
  <rect y="8" width="24" height="2"/>
  <rect width="24" height="2"/>
</symbol><symbol id="icon-phone-green" viewBox="0 0 20 20">
<g clip-path="url(#clip0)">
<path d="M17.9 9.4H9.39999V10.6H17.9L15.8 12.7L16.7 13.6L19.8 10.5C19.8974 10.3702 19.95 10.2123 19.95 10.05C19.95 9.88772 19.8974 9.72982 19.8 9.6L16.7 6.5L15.8 7.4L17.9 9.4Z" fill="#68B738"/>
<path d="M8.10001 19.4V13.2C8.08846 13.0447 8.02154 12.8987 7.91142 12.7886C7.80131 12.6785 7.65531 12.6116 7.50001 12.6H3.10001C3.10516 12.9167 3.23325 13.2189 3.45718 13.4428C3.68112 13.6668 3.98336 13.7949 4.30001 13.8H6.80001V18.8H3.10001C2.86326 18.8149 2.62591 18.7825 2.40176 18.7048C2.17762 18.6271 1.97115 18.5057 1.79436 18.3475C1.61757 18.1893 1.47399 17.9976 1.37196 17.7834C1.26992 17.5693 1.21148 17.337 1.20001 17.1V3.10001C1.19181 2.6373 1.36516 2.18977 1.68292 1.85331C2.00069 1.51686 2.43758 1.31824 2.90001 1.30001H6.80001V6.30001H4.40001C4.08336 6.30516 3.78112 6.43324 3.55718 6.65718C3.33325 6.88112 3.20516 7.18336 3.20001 7.50001H7.60001C7.75531 7.48846 7.90131 7.42154 8.01142 7.31142C8.12154 7.2013 8.18846 7.05531 8.20001 6.90001V0.600012C8.15232 0.443872 8.06117 0.304534 7.93721 0.198285C7.81325 0.0920352 7.66161 0.0232649 7.50001 1.23734e-05H3.10001C2.70599 -0.0133408 2.31321 0.0511002 1.94411 0.189651C1.57501 0.328202 1.23684 0.538145 0.948933 0.807477C0.661026 1.07681 0.42903 1.40025 0.266207 1.7593C0.103385 2.11835 0.01293 2.50598 1.46306e-05 2.90001V16.8C-0.0289644 17.1977 0.0246504 17.597 0.157487 17.9729C0.290324 18.3489 0.499509 18.6932 0.771886 18.9844C1.04426 19.2756 1.37394 19.5072 1.74019 19.6648C2.10643 19.8224 2.50132 19.9024 2.90001 19.9H7.50001C7.5735 19.915 7.64943 19.9133 7.72216 19.895C7.7949 19.8767 7.86259 19.8423 7.92021 19.7942C7.97783 19.7462 8.02391 19.6859 8.05504 19.6176C8.08616 19.5494 8.10153 19.475 8.10001 19.4Z" fill="#68B738"/>
</g>

</symbol><symbol id="icon-phone" viewBox="0 0 20 20">
  <path d="M17.9,9.4H9.4v1.2h8.5l-2.1,2.1l0.9,0.9l3.1-3.1c0.2-0.2,0.2-0.6,0-0.9l-3.1-3.1l-0.9,0.9L17.9,9.4z"/>
  <path d="M8.1,19.4v-6.2c0-0.3-0.3-0.6-0.6-0.6H4.4l0,0H3.1l0,0c0,0.7,0.6,1.2,1.2,1.2h2.5v5H3.1c-1,0.1-1.8-0.7-1.9-1.7
  c0-0.1,0-0.1,0-0.2V3.1c0-1,0.8-1.8,1.7-1.8c0.1,0,0.1,0,0.2,0h3.7v5H4.4c-0.7,0-1.2,0.6-1.2,1.2h4.4c0.3,0,0.6-0.3,0.6-0.6V0.6
  C8.1,0.3,7.8,0,7.5,0H3.1C1.5-0.1,0.1,1.2,0,2.9C0,3,0,3.1,0,3.1v13.7c-0.1,1.7,1.2,3.1,2.9,3.1c0.1,0,0.2,0,0.2,0h4.4
  C7.8,20,8.1,19.7,8.1,19.4z"/>
</symbol><symbol id="icon-plus-mobile" viewBox="0 0 30 30">
  <style type="text/css">
    .st0 {
      fill: #231F20;
    }
  </style>
  <polygon class="st0" points="30,14 16,14 16,0 14,0 14,14 0,14 0,16 14,16 14,30 16,30 16,16 30,16 "/>
</symbol><symbol id="icon-plus" viewBox="0 0 60 60">
  <style type="text/css">
    .st0 {
      fill: #231F20;
    }
  </style>
  <polygon class="st0" points="60,29.5 30.5,29.5 30.5,0 29.5,0 29.5,29.5 0,29.5 0,30.5 29.5,30.5 29.5,60 30.5,60 30.5,30.5
  60,30.5 "/>
</symbol><symbol id="icon-right-arrow-long" viewBox="0 0 32 12">
<line y1="6" x2="18" y2="6" stroke="black" stroke-width="2"/>
<path d="M24 6L17.25 11.1962L17.25 0.803848L24 6Z" fill="black"/>
</symbol><symbol id="icon-right-arrow-verylong" viewBox="0 0 32 11">
  <style type="text/css">
    .st0 {
      fill: #3F4242;
    }
  </style>
  <polygon class="st0" points="25.4,0 32,5.5 25.4,11 25.4,6.6 0,6.6 0,4.4 25.4,4.4 "/>
</symbol><symbol id="icon-tick" viewBox="0 0 21.1 15.5">
  <polygon points="20.1,0 7.7,13.3 1,6.1 0,7.2 7.6,15.4 7.7,15.5 21,1.2 21.1,1.1 "/>
</symbol><symbol id="icon-vk" viewBox="0 0 23 13">
<path d="M0.0700912 1.99266C0.0700912 1.37082 0.493211 1.03552 1.33945 0.986745L4.60039 1.00503C4.81925 1.00503 4.96515 1.09648 5.03811 1.27938C5.37368 2.19385 5.74938 2.98334 6.16521 3.64785C6.58103 4.31237 7.12453 5.07748 7.79568 5.94317C7.85404 6.05291 7.94888 6.10778 8.08019 6.10778C8.18233 6.10778 8.26257 6.0651 8.32093 5.97975L8.38659 5.77857L8.40848 2.6145C8.40848 2.39503 8.34647 2.24871 8.22245 2.17556C8.09843 2.1024 7.86863 2.04753 7.53305 2.01095C7.27043 1.97437 7.13912 1.84025 7.13912 1.60859C7.13912 1.55981 7.14641 1.52323 7.161 1.49885C7.4674 0.706308 8.34282 0.310037 9.78726 0.310037L11.0129 0.291748C11.5673 0.291748 12.0269 0.407581 12.3916 0.639247C12.7564 0.870912 12.9388 1.2367 12.9388 1.73661V5.88831C13.0409 5.94927 13.1357 5.97975 13.2233 5.97975C13.4421 5.97975 13.6318 5.87002 13.7923 5.65054C15.3973 3.77283 16.2654 2.51696 16.3967 1.88293C16.3967 1.87073 16.4113 1.84025 16.4405 1.79148C16.5426 1.60859 16.7104 1.45008 16.9438 1.31595C17.1773 1.18183 17.3815 1.09039 17.5566 1.04161C17.615 1.01723 17.6806 1.00503 17.7536 1.00503H21.1459L21.3647 1.02332C21.6565 1.02332 21.8827 1.13916 22.0432 1.37082C22.1015 1.44398 22.1416 1.52323 22.1635 1.60859C22.1854 1.69394 22.2 1.77929 22.2073 1.86464C22.2146 1.94999 22.2182 1.99876 22.2182 2.01095V2.13898C22.1161 2.63889 21.8571 3.17233 21.4413 3.7393C21.0255 4.30627 20.4966 4.91897 19.8546 5.57739C19.2126 6.2358 18.8114 6.66865 18.6509 6.87593C18.5196 7.02225 18.4539 7.15637 18.4539 7.2783C18.4539 7.37584 18.5123 7.48558 18.629 7.60751L21.8243 10.9728C21.9994 11.1678 22.0869 11.3812 22.0869 11.6129C22.0869 11.8933 21.9556 12.125 21.693 12.3079C21.4304 12.4908 21.1167 12.5944 20.7519 12.6188L20.3799 12.6371H17.0533C17.0387 12.6371 17.0095 12.6401 16.9657 12.6462C16.9219 12.6523 16.8928 12.6554 16.8782 12.6554C16.5572 12.6554 16.2581 12.5396 15.9809 12.3079C15.8787 12.2103 15.193 11.491 13.9236 10.1497C13.8507 10.0644 13.7485 9.98513 13.6172 9.91197C13.5589 10.1071 13.4823 10.3875 13.3874 10.7533C13.2926 11.1191 13.2233 11.3812 13.1795 11.5397L13.1139 11.8506C12.968 12.2774 12.6616 12.5335 12.1947 12.6188L11.8883 12.6371H9.74349C8.53249 12.6371 7.32514 12.1738 6.12144 11.2471C4.91773 10.3204 3.8344 9.12248 2.87144 7.65323C1.90848 6.18398 1.01117 4.47392 0.179519 2.52306C0.106567 2.36455 0.0700912 2.18775 0.0700912 1.99266ZM13.2233 6.72962C12.9169 6.72962 12.6397 6.65951 12.3916 6.51929C12.1436 6.37907 12.0196 6.18703 12.0196 5.94317V1.73661C12.0196 1.49275 11.9466 1.319 11.8007 1.21536C11.6548 1.11172 11.3995 1.0599 11.0347 1.0599L9.78726 1.09648C9.15988 1.09648 8.68569 1.18793 8.36471 1.37082C9.00668 1.62687 9.32767 2.04143 9.32767 2.6145V5.83344C9.29849 6.13826 9.15258 6.39126 8.88996 6.59245C8.62733 6.79363 8.33552 6.89422 8.01454 6.89422C7.57683 6.89422 7.24125 6.71742 7.0078 6.36383C5.86975 4.92506 5.02351 3.55945 4.46908 2.267L4.27211 1.79148L1.36134 1.77319C1.17166 1.77319 1.06588 1.78233 1.044 1.80062C1.02211 1.81891 1.01117 1.87073 1.01117 1.95608C1.01117 2.06582 1.02576 2.18165 1.05494 2.30358L1.51454 3.32779C2.74013 5.97366 4.07149 8.05865 5.50864 9.58276C6.94579 11.1069 8.35741 11.8689 9.74349 11.8689H11.932C12.0196 11.8689 12.0852 11.8476 12.129 11.8049C12.1728 11.7623 12.2093 11.6799 12.2384 11.558L12.2822 11.3751L12.698 9.76566C12.8148 9.54619 12.9169 9.39987 13.0044 9.32671C13.1649 9.19259 13.3546 9.12553 13.5735 9.12553C13.9236 9.12553 14.2811 9.30233 14.6459 9.65592L16.5061 11.6312C16.6228 11.7897 16.7469 11.8689 16.8782 11.8689H20.4893C20.927 11.8689 21.1459 11.7775 21.1459 11.5946C21.1459 11.5336 21.124 11.4727 21.0802 11.4117L17.9068 8.10132C17.6588 7.84527 17.5347 7.57093 17.5347 7.2783C17.5347 6.98567 17.6515 6.70523 17.8849 6.43699C18.0746 6.19313 18.443 5.78771 18.9901 5.22074C19.5373 4.65377 20.0151 4.12338 20.4236 3.62956C20.8322 3.13575 21.1021 2.68766 21.2334 2.28529L21.299 2.04753C21.2845 2.02314 21.2772 1.98352 21.2772 1.92865C21.2772 1.87378 21.2699 1.82806 21.2553 1.79148H17.8193C17.6004 1.86464 17.4253 1.97437 17.294 2.12069L17.1627 2.46819C16.7979 3.3095 15.8423 4.60805 14.2957 6.36383C13.9893 6.60769 13.6318 6.72962 13.2233 6.72962Z" fill="currentColor"/>
</symbol></svg>
